<svg xmlns="http://www.w3.org/2000/svg" xmlns:xlink="http://www.w3.org/1999/xlink" width="600" height="600" viewBox="0 100 600 600">
	<path fill="#fff" stroke="#fff" stroke-width="20" d="M569 652L550 637 563 616 537 612 553 577 519 566 537 529 513 515 537 471 509 457 527 418 510 401 520 374 509 360 516 349 506 360 516 375C516 375 511 394 506 400 509 406 516 413 523 418 519 422 508 451 504 460 504 460 525 470 532 473 527 481 511 505 504 516 510 518 520 526 529 530 522 535 518 564 510 570 510 570 538 577 547 580 541 586 537 604 532 613 536 617 559 618 559 618 559 618 551 633 546 637 550 641 569 652 569 652ZM581 661C544 665 517 611 505 590 488 563 450 604 407 629 393 638 408 648 419 640 428 651 420 687 414 690 410 664 375 644 353 642 170 627 97 487 79 437 79 437 83 434 84 436 88 446 109 483 128 475 147 468 118 447 118 447 109 394 141 335 141 335 141 335 166 301 150 334 124 389 145 504 194 508 230 512 229 450 203 411 176 372 157 405 165 438 168 452 176 459 185 457 198 454 196 443 196 443 203 446 210 467 181 469 147 470 137 398 167 375 196 351 233 428 256 402 278 377 238 346 225 354 215 360 216 371 222 376 228 381 240 382 238 382 210 391 197 355 218 343 256 322 275 411 335 356 371 322 320 277 288 271 283 270 280 266 288 268 340 279 381 327 338 364 296 402 269 413 303 455 335 494 335 462 330 448 330 448 370 485 364 536 348 508 274 448 256 466 238 484 267 520 311 548 409 611 384 528 431 541 431 541 401 551 416 567 421 572 436 573 436 573 403 574 351 638 296 601 267 582 297 570 300 574 295 574 289 581 300 592 305 597 316 597 319 597 329 594 319 582 295 561 271 541 240 538 236 542 226 552 268 626 348 627 428 629 450 532 479 533 469 541 449 574 460 573 536 567 449 311 538 305 514 326 520 373 532 410 542 441 557 515 539 528 563 549 560 632 581 661ZM273 135C279 142 276 149 268 150 245 144 208 127 177 158 174 163 176 165 179 162 189 152 201 147 212 145 210 148 208 151 208 155 208 161 213 166 218 166 224 166 229 161 229 155 229 154 229 153 228 152 228 154 227 155 225 155 220 155 220 147 225 147 226 147 226 147 226 147 225 146 224 145 223 145 255 145 285 163 286 150 286 150 286 150 286 150 288 145 282 138 273 135ZM58 211C57 210 56 210 56 210 57 211 57 211 58 211ZM415 279C451 239 452 167 438 132 340 76 158 112 115 166 95 175 31 170 22 213 22 213 70 233 58 289 57 293 60 292 61 287 61 287 71 240 41 211 26 196 59 185 63 194 66 199 61 210 58 211 61 211 68 210 71 198 75 184 96 214 71 221 71 221 92 224 94 205 96 186 107 178 115 171 167 113 335 87 433 143 443 173 446 237 415 274ZM38 395C52 329 144 265 131 253 135 246 161 242 161 242L159 235C154 231 130 245 130 245 139 232 158 227 158 227L157 217C151 215 130 233 130 233 134 216 161 204 162 202 162 200 162 189 162 189 104 221 95 295 80 311 68 325 5 398 14 479 14 479 48 432 106 419 108 392 122 341 126 340 126 340 77 338 67 383 67 383 86 367 89 377 92 388 90 419 60 425 30 432 31 435 40 410 49 385 91 300 174 289L171 277C171 277 73 294 38 395ZM397 305L385 303 396 289 381 289 394 267 372 269 381 245 354 256 359 229 333 245 333 216 312 237 310 213 298 235 286 215 279 234 263 222 260 236 249 227 245 241 237 233 231 243 222 237C218 240 214 243 209 246 209 247 208 251 211 251 216 251 220 251 228 250 238 249 253 247 267 247 302 247 329 251 346 266 386 300 377 327 371 339 382 330 391 318 397 305ZM409 269C409 299 390 332 365 349L365 349 364 349C364 349 364 349 363 349 363 349 362 349 361 348 360 347 362 347 364 345 368 336 382 310 340 274 324 259 299 252 265 252 251 252 239 253 228 254 221 255 214 255 209 255 205 255 197 255 197 250L197 249 198 248C226 227 276 203 324 203 347 203 367 208 383 219 400 230 409 248 409 269ZM402 165C420 151 385 142 364 153 360 155 351 158 362 152 383 141 434 137 404 165 402 166 400 166 402 165"/>
	<path fill="#000" d="M569 652L550 637 563 616 537 612 553 577 519 566 537 529 513 515 537 471 509 457 527 418 510 401 520 374 509 360 516 349 506 360 516 375C516 375 511 394 506 400 509 406 516 413 523 418 519 422 508 451 504 460 504 460 525 470 532 473 527 481 511 505 504 516 510 518 520 526 529 530 522 535 518 564 510 570 510 570 538 577 547 580 541 586 537 604 532 613 536 617 559 618 559 618 559 618 551 633 546 637 550 641 569 652 569 652ZM581 661C544 665 517 611 505 590 488 563 450 604 407 629 393 638 408 648 419 640 428 651 420 687 414 690 410 664 375 644 353 642 170 627 97 487 79 437 79 437 83 434 84 436 88 446 109 483 128 475 147 468 118 447 118 447 109 394 141 335 141 335 141 335 166 301 150 334 124 389 145 504 194 508 230 512 229 450 203 411 176 372 157 405 165 438 168 452 176 459 185 457 198 454 196 443 196 443 203 446 210 467 181 469 147 470 137 398 167 375 196 351 233 428 256 402 278 377 238 346 225 354 215 360 216 371 222 376 228 381 240 382 238 382 210 391 197 355 218 343 256 322 275 411 335 356 371 322 320 277 288 271 283 270 280 266 288 268 340 279 381 327 338 364 296 402 269 413 303 455 335 494 335 462 330 448 330 448 370 485 364 536 348 508 274 448 256 466 238 484 267 520 311 548 409 611 384 528 431 541 431 541 401 551 416 567 421 572 436 573 436 573 403 574 351 638 296 601 267 582 297 570 300 574 295 574 289 581 300 592 305 597 316 597 319 597 329 594 319 582 295 561 271 541 240 538 236 542 226 552 268 626 348 627 428 629 450 532 479 533 469 541 449 574 460 573 536 567 449 311 538 305 514 326 520 373 532 410 542 441 557 515 539 528 563 549 560 632 581 661ZM273 135C279 142 276 149 268 150 245 144 208 127 177 158 174 163 176 165 179 162 189 152 201 147 212 145 210 148 208 151 208 155 208 161 213 166 218 166 224 166 229 161 229 155 229 154 229 153 228 152 228 154 227 155 225 155 220 155 220 147 225 147 226 147 226 147 226 147 225 146 224 145 223 145 255 145 285 163 286 150 286 150 286 150 286 150 288 145 282 138 273 135ZM58 211C57 210 56 210 56 210 57 211 57 211 58 211ZM415 279C451 239 452 167 438 132 340 76 158 112 115 166 95 175 31 170 22 213 22 213 70 233 58 289 57 293 60 292 61 287 61 287 71 240 41 211 26 196 59 185 63 194 66 199 61 210 58 211 61 211 68 210 71 198 75 184 96 214 71 221 71 221 92 224 94 205 96 186 107 178 115 171 167 113 335 87 433 143 443 173 446 237 415 274ZM38 395C52 329 144 265 131 253 135 246 161 242 161 242L159 235C154 231 130 245 130 245 139 232 158 227 158 227L157 217C151 215 130 233 130 233 134 216 161 204 162 202 162 200 162 189 162 189 104 221 95 295 80 311 68 325 5 398 14 479 14 479 48 432 106 419 108 392 122 341 126 340 126 340 77 338 67 383 67 383 86 367 89 377 92 388 90 419 60 425 30 432 31 435 40 410 49 385 91 300 174 289L171 277C171 277 73 294 38 395ZM397 305L385 303 396 289 381 289 394 267 372 269 381 245 354 256 359 229 333 245 333 216 312 237 310 213 298 235 286 215 279 234 263 222 260 236 249 227 245 241 237 233 231 243 222 237C218 240 214 243 209 246 209 247 208 251 211 251 216 251 220 251 228 250 238 249 253 247 267 247 302 247 329 251 346 266 386 300 377 327 371 339 382 330 391 318 397 305ZM409 269C409 299 390 332 365 349L365 349 364 349C364 349 364 349 363 349 363 349 362 349 361 348 360 347 362 347 364 345 368 336 382 310 340 274 324 259 299 252 265 252 251 252 239 253 228 254 221 255 214 255 209 255 205 255 197 255 197 250L197 249 198 248C226 227 276 203 324 203 347 203 367 208 383 219 400 230 409 248 409 269ZM402 165C420 151 385 142 364 153 360 155 351 158 362 152 383 141 434 137 404 165 402 166 400 166 402 165"/>
</svg>
