<svg xmlns="http://www.w3.org/2000/svg" width="32" height="32" viewBox="0 0 130 130">
	<style>.a{fill:#FFF;}</style>
	<path d="M127 4H8c-2 0-4 2-4 4v116c0 2 2 4 4 4h118c2 0 4-2 4-4V8C130 6 129 4 127 4z" fill="#DC4A38"/>
	<path d="M70 72l-4-3c-1-1-3-2-3-5 0-2 2-4 3-5 5-4 9-8 9-16 0-8-5-13-8-15h7l7-5H60c-6 0-15 1-21 7 -5 4-7 10-7 15 0 9 7 17 18 17 1 0 2 0 4 0 -1 1-1 2-1 4 0 3 2 6 3 8 -5 0-14 1-21 5 -7 4-9 10-9 14 0 8 8 16 24 16 19 0 29-11 29-21C80 80 75 76 70 72zM56 59c-10 0-14-12-14-20 0-3 1-6 2-8 2-2 5-4 8-4 9 0 14 12 14 20 0 2 0 6-3 8C62 58 59 59 56 59zM56 104c-12 0-19-6-19-14 0-8 7-11 10-11 5-2 11-2 12-2 1 0 2 0 3 0 8 6 12 9 12 15C72 99 67 104 56 104z" class="a"/>
	<polygon points="98 59 98 48 93 48 93 59 82 59 82 64 93 64 93 76 98 76 98 64 110 64 110 59 " class="a"/>
</svg>