<svg xmlns="http://www.w3.org/2000/svg" width="15" height="15" viewBox="0 0 1000 1000">
  <circle cx="500" cy="500" r="500" fill="white" />
  <path d="M133 189l57-56 678 678 -56 57L133 189zM593 407c-12-12-27-22-43-29 -16-7-33-10-50-10 -6 0-13 1-19 1l149 149c1-6 1-12 1-19 0-17-3-34-10-50C615 434 605 419 593 407L593 407zM399 288C430 273 464 265 500 265c130 0 235 105 235 235 0 36-8 70-23 101l95 95c112-91 182-199 182-199S802 178 490 178c-61 0-117 13-167 33L399 288 399 288zM599 713c-30 14-63 22-99 22 -130 0-235-105-235-235 0-35 8-69 22-99L181 296C69 388 10 500 10 500s219 322 494 322c59 0 114-15 166-38L599 713 599 713zM407 593c12 12 27 22 43 29 16 7 33 10 51 10 5 0 11 0 16-1L369 484c-1 5-1 11-1 16 0 17 3 35 10 51C385 566 395 581 407 593L407 593z"/>
</svg>