<svg xmlns="http://www.w3.org/2000/svg" widht="20" height="20" viewBox="0 0 1000 1000">
	<path fill="white" d="M618 386c90 90 90 238 0 328L409 923c-90 90-237 90-328 0l-4-4c-90-90-90-237 0-328l146-146c-1 43 7 86 23 127L153 666c-49 49-49 128 0 177l4 4c49 49 129 49 177 0l209-209c49-49 49-129 0-177l-4-4c-8-8-16-14-25-19l76-76c8 6 16 13 24 21L618 386zM923 82l-4-4c-90-90-237-90-328 0L382 286c-90 90-90 238 0 328l4 4c8 7 16 14 24 21l76-76c-9-5-17-12-25-19l-4-4c-49-49-49-129 0-177l209-209c49-49 128-49 177 0l4 4c49 49 49 129 0 177L753 428c16 41 24 84 23 127l146-146C1013 319 1013 172 923 82z"/>
</svg>